# xmcd
# 
# Track frame offsets:
#     150
#     13994
#     32854
#     48822
#     60778
#     77313
#     87847
#     109032
#     126156
#     139519
#     151956
#     162935
#     177220
# 
# Disc length: 2614
# 
# Revision: 3
# Processed by: cddbd v1.5.2PL0 Copyright (c) Steve Scherf et al.
# Submitted via: fre:ac v1.0.31
# 
DISCID=920a340d
DTITLE=Robbie Fulks and Linda Gail Lewis - Wild!  Wild!  Wild!
DYEAR=2018
DGENRE=Rock/Pop
TTITLE0=Round too Long
TTITLE1=I Just Lived a Country Song
TTITLE2=That's Why They Call It Temptation
TTITLE3=Wild!  Wild!  Wild!
TTITLE4=Who Cares?
TTITLE5=Till Death
TTITLE6=Memphis Never Falls from Style
TTITLE7=Boogie Woogie Country Gal
TTITLE8=Foolmaker
TTITLE9=Your Red Wagon
TTITLE10=On the Jericho Road
TTITLE11=It Came from the South
TTITLE12=Hardluck, Louisiana
EXTD=
EXTT0=
EXTT1=
EXTT2=
EXTT3=
EXTT4=
EXTT5=
EXTT6=
EXTT7=
EXTT8=
EXTT9=
EXTT10=
EXTT11=
EXTT12=
PLAYORDER=
